# xmcd
#
# Track frame offsets:
#	150
#	22485
#	40210
#	54785
#	70635
#	81940
#	105287
#	121280
#	145277
#	176675
#	208292
#	222790
#	243040
#	250982
#	277230
#
# Disc length: 3911 seconds
#
# Revision: 1
# Processed by: cddbd v1.5PL3 Copyright (c) Steve Scherf et al.
# Submitted via: CDex 1.50Beta5
#
DISCID=dc0f450f
DTITLE=Kalevi Kiviniemi - Christmas Organ
DYEAR=1900
DGENRE=
TTITLE0=Guand Jesus Naquit A Noel
TTITLE1=Ou S En Vont Ces Gais Bergers
TTITLE2=Noel De Saintogne
TTITLE3=Carillon
TTITLE4=Noel Provencal
TTITLE5=Noel: Votre Bonte Grand Dieu
TTITLE6=Sur Un Noel
TTITLE7=Grace Soit Rendue A Dieu La Sus
TTITLE8=Offertoire Pour La Messe De Minuit
TTITLE9=Rhapsodie Sur Des Noels
TTITLE10=Elevation Sur Le Noel Carcassonnais
TTITLE11=Noel Languedocien
TTITLE12=In Duici Jubilo
TTITLE13=Petite Farandole
TTITLE14=Dans Une Grange Champestre
EXTD=
EXTT0=
EXTT1=
EXTT2=
EXTT3=
EXTT4=
EXTT5=
EXTT6=
EXTT7=
EXTT8=
EXTT9=
EXTT10=
EXTT11=
EXTT12=
EXTT13=
EXTT14=
PLAYORDER=
